<svg width="25" height="25" viewBox="0 0 25 25" fill="none" xmlns="http://www.w3.org/2000/svg">
<path d="M8.42236 12.9072H8.43236M12.4224 12.9072H12.4324M16.4224 12.9072H16.4324M8.32236 20.9072C10.2309 21.8863 12.4264 22.1515 14.5133 21.655C16.6001 21.1585 18.4409 19.933 19.7041 18.1994C20.9673 16.4657 21.5698 14.3379 21.4029 12.1994C21.2361 10.0608 20.3109 8.05218 18.7942 6.5354C17.2774 5.01863 15.2688 4.09346 13.1302 3.92663C10.9917 3.75979 8.86384 4.36226 7.13018 5.62546C5.39653 6.88866 4.17105 8.72952 3.67459 10.8163C3.17812 12.9031 3.44331 15.0986 4.42236 17.0072L2.42236 22.9072L8.32236 20.9072Z" stroke="#3C3C43" stroke-opacity="0.25" stroke-width="2" stroke-linecap="round" stroke-linejoin="round"/>
</svg>
