<svg width="25" height="25" viewBox="0 0 25 25" fill="none" xmlns="http://www.w3.org/2000/svg">
<path d="M22.4224 17.8271V20.8271C22.4235 21.1056 22.3664 21.3813 22.2549 21.6365C22.1433 21.8917 21.9797 22.1207 21.7744 22.309C21.5692 22.4973 21.3269 22.6406 21.0631 22.7298C20.7993 22.8191 20.5197 22.8522 20.2424 22.8271C17.1652 22.4928 14.2094 21.4413 11.6124 19.7571C9.19619 18.2218 7.14769 16.1733 5.61236 13.7571C3.92234 11.1483 2.8706 8.17813 2.54236 5.08714C2.51737 4.81061 2.55023 4.5319 2.63886 4.26876C2.72748 4.00563 2.86993 3.76383 3.05712 3.55876C3.24432 3.35369 3.47216 3.18985 3.72615 3.07766C3.98013 2.96547 4.2547 2.9074 4.53236 2.90714H7.53236C8.01766 2.90236 8.48815 3.07422 8.85612 3.39067C9.22409 3.70713 9.46443 4.14659 9.53236 4.62714C9.65898 5.58721 9.89381 6.52987 10.2324 7.43714C10.3669 7.79506 10.396 8.18405 10.3163 8.55802C10.2365 8.93199 10.0512 9.27525 9.78236 9.54714L8.51236 10.8171C9.93591 13.3207 12.0088 15.3936 14.5124 16.8171L15.7824 15.5471C16.0542 15.2783 16.3975 15.093 16.7715 15.0132C17.1454 14.9335 17.5344 14.9626 17.8924 15.0971C18.7996 15.4357 19.7423 15.6705 20.7024 15.7971C21.1881 15.8657 21.6318 16.1103 21.9489 16.4846C22.266 16.8589 22.4345 17.3367 22.4224 17.8271Z" stroke="#3C3C43" stroke-opacity="0.25" stroke-width="2" stroke-linecap="round" stroke-linejoin="round"/>
</svg>
