<svg width="25" height="25" viewBox="0 0 25 25" fill="none" xmlns="http://www.w3.org/2000/svg">
<path d="M22.4221 10.9072V16.9072M6.42212 13.4072V16.9072C6.42212 17.7028 7.05426 18.4659 8.17948 19.0285C9.3047 19.5911 10.8308 19.9072 12.4221 19.9072C14.0134 19.9072 15.5395 19.5911 16.6648 19.0285C17.79 18.4659 18.4221 17.7028 18.4221 16.9072V13.4072M21.8422 11.8293C22.0212 11.7503 22.1731 11.6205 22.2791 11.4561C22.3851 11.2916 22.4405 11.0997 22.4385 10.904C22.4365 10.7084 22.3771 10.5176 22.2677 10.3554C22.1583 10.1931 22.0038 10.0665 21.8232 9.99128L13.2522 6.08728C12.9916 5.96843 12.7085 5.90692 12.4222 5.90692C12.1358 5.90692 11.8527 5.96843 11.5922 6.08728L3.02216 9.98728C2.84413 10.0653 2.69268 10.1934 2.58633 10.3561C2.47998 10.5188 2.42334 10.7089 2.42334 10.9033C2.42334 11.0976 2.47998 11.2878 2.58633 11.4505C2.69268 11.6131 2.84413 11.7413 3.02216 11.8193L11.5922 15.7273C11.8527 15.8461 12.1358 15.9076 12.4222 15.9076C12.7085 15.9076 12.9916 15.8461 13.2522 15.7273L21.8422 11.8293Z" stroke="#3C3C43" stroke-opacity="0.25" stroke-width="2" stroke-linecap="round" stroke-linejoin="round"/>
</svg>
